<mxfile host="app.diagrams.net" modified="2024-06-21T14:14:50.159Z" agent="Mozilla/5.0 (Windows NT 10.0; Win64; x64) AppleWebKit/537.36 (KHTML, like Gecko) Chrome/124.0.0.0 Safari/537.36" etag="JUlHKIfAC_lmHNXhqEhp" version="24.5.5" type="device">
  <diagram name="Page-1" id="_9r6geDOEYo5xFr4fmT0">
    <mxGraphModel dx="2924" dy="2206" grid="1" gridSize="10" guides="1" tooltips="1" connect="1" arrows="1" fold="1" page="1" pageScale="1" pageWidth="850" pageHeight="1100" background="#FFFFFF" math="0" shadow="0">
      <root>
        <mxCell id="0" />
        <mxCell id="1" parent="0" />
        <mxCell id="sWa0SD8Ajx1KSGOqKPP4-14" value="October 29th 1791, 4 o&#39;clock P.M. Richmond I or&amp;nbsp; Isle Madame near the Gut of Canso. Vessel coming out of Arishart Harbour, Green I.-i1" style="swimlane;fontStyle=0;childLayout=stackLayout;horizontal=1;startSize=26;fillColor=none;horizontalStack=0;resizeParent=1;resizeParentMax=0;resizeLast=0;collapsible=1;marginBottom=0;whiteSpace=wrap;html=1;strokeColor=#FF0000;" parent="1" vertex="1">
          <mxGeometry x="-480" y="518" width="440" height="52" as="geometry" />
        </mxCell>
        <mxCell id="sWa0SD8Ajx1KSGOqKPP4-15" value="rico:Instantiation&lt;div&gt;&lt;br&gt;&lt;/div&gt;" style="text;strokeColor=none;fillColor=none;align=center;verticalAlign=top;spacingLeft=4;spacingRight=4;overflow=hidden;rotatable=0;points=[[0,0.5],[1,0.5]];portConstraint=eastwest;whiteSpace=wrap;html=1;" parent="sWa0SD8Ajx1KSGOqKPP4-14" vertex="1">
          <mxGeometry y="26" width="440" height="26" as="geometry" />
        </mxCell>
        <mxCell id="K4QZWATomJR9_dxTVFmW-37" value="" style="endArrow=classic;html=1;rounded=0;entryX=1;entryY=0.5;entryDx=0;entryDy=0;exitX=0;exitY=0.5;exitDx=0;exitDy=0;" parent="1" source="O5MTQEgZ2gDOvgu6FBi2-2" target="sWa0SD8Ajx1KSGOqKPP4-14" edge="1">
          <mxGeometry relative="1" as="geometry">
            <mxPoint x="239.0999999999999" y="403.48799999999983" as="sourcePoint" />
            <mxPoint x="110" y="490" as="targetPoint" />
          </mxGeometry>
        </mxCell>
        <mxCell id="K4QZWATomJR9_dxTVFmW-38" value="rico:hasOrHadInstantiation" style="edgeLabel;resizable=0;html=1;;align=center;verticalAlign=middle;" parent="K4QZWATomJR9_dxTVFmW-37" connectable="0" vertex="1">
          <mxGeometry relative="1" as="geometry">
            <mxPoint x="-34" y="16" as="offset" />
          </mxGeometry>
        </mxCell>
        <mxCell id="K4QZWATomJR9_dxTVFmW-41" value="" style="endArrow=classic;html=1;rounded=0;entryX=1;entryY=0.5;entryDx=0;entryDy=0;exitX=0;exitY=0.125;exitDx=0;exitDy=0;exitPerimeter=0;" parent="1" source="sWa0SD8Ajx1KSGOqKPP4-15" target="K4QZWATomJR9_dxTVFmW-45" edge="1">
          <mxGeometry relative="1" as="geometry">
            <mxPoint x="-160" y="493" as="sourcePoint" />
            <mxPoint x="-290" y="494.5" as="targetPoint" />
          </mxGeometry>
        </mxCell>
        <mxCell id="K4QZWATomJR9_dxTVFmW-42" value="rico:instantiationExtent" style="edgeLabel;resizable=0;html=1;;align=center;verticalAlign=middle;" parent="K4QZWATomJR9_dxTVFmW-41" connectable="0" vertex="1">
          <mxGeometry relative="1" as="geometry" />
        </mxCell>
        <mxCell id="K4QZWATomJR9_dxTVFmW-45" value="&lt;div style=&quot;text-align: center;&quot;&gt;&lt;span style=&quot;background-color: initial;&quot;&gt;1 watercolour on paper&lt;/span&gt;&lt;/div&gt;" style="html=1;whiteSpace=wrap;rounded=1;arcSize=50;strokeColor=#000000;align=left;" parent="1" vertex="1">
          <mxGeometry x="-740" y="630" width="130" height="30" as="geometry" />
        </mxCell>
        <mxCell id="wiPwyt0miK05mvKJtJq--23" value="F 47-11-1-0-1" style="swimlane;fontStyle=0;childLayout=stackLayout;horizontal=1;startSize=26;fillColor=none;horizontalStack=0;resizeParent=1;resizeParentMax=0;resizeLast=0;collapsible=1;marginBottom=0;whiteSpace=wrap;html=1;" parent="1" vertex="1">
          <mxGeometry x="130" y="50" width="110" height="52" as="geometry">
            <mxRectangle x="981" y="570" width="50" height="40" as="alternateBounds" />
          </mxGeometry>
        </mxCell>
        <mxCell id="wiPwyt0miK05mvKJtJq--24" value="rico:Identifier&lt;div&gt;&lt;br&gt;&lt;/div&gt;" style="text;strokeColor=none;fillColor=none;align=center;verticalAlign=top;spacingLeft=4;spacingRight=4;overflow=hidden;rotatable=0;points=[[0,0.5],[1,0.5]];portConstraint=eastwest;whiteSpace=wrap;html=1;" parent="wiPwyt0miK05mvKJtJq--23" vertex="1">
          <mxGeometry y="26" width="110" height="26" as="geometry" />
        </mxCell>
        <mxCell id="wiPwyt0miK05mvKJtJq--25" value="" style="endArrow=classic;html=1;rounded=0;entryX=0.467;entryY=1.051;entryDx=0;entryDy=0;entryPerimeter=0;exitX=0.218;exitY=0.019;exitDx=0;exitDy=0;exitPerimeter=0;" parent="1" source="O5MTQEgZ2gDOvgu6FBi2-1" target="wiPwyt0miK05mvKJtJq--24" edge="1">
          <mxGeometry relative="1" as="geometry">
            <mxPoint x="353" y="340" as="sourcePoint" />
            <mxPoint x="260" y="242" as="targetPoint" />
          </mxGeometry>
        </mxCell>
        <mxCell id="wiPwyt0miK05mvKJtJq--26" value="rico:hasOrHadIdentifier" style="edgeLabel;resizable=0;html=1;;align=center;verticalAlign=middle;" parent="wiPwyt0miK05mvKJtJq--25" connectable="0" vertex="1">
          <mxGeometry relative="1" as="geometry">
            <mxPoint x="-33" y="-53" as="offset" />
          </mxGeometry>
        </mxCell>
        <mxCell id="wiPwyt0miK05mvKJtJq--31" value="" style="endArrow=classic;html=1;rounded=0;exitX=0.434;exitY=-0.017;exitDx=0;exitDy=0;exitPerimeter=0;entryX=0.699;entryY=1.06;entryDx=0;entryDy=0;entryPerimeter=0;" parent="1" source="wiPwyt0miK05mvKJtJq--23" target="wiPwyt0miK05mvKJtJq--34" edge="1">
          <mxGeometry relative="1" as="geometry">
            <mxPoint x="-180" y="-150" as="sourcePoint" />
            <mxPoint x="-40" y="-140" as="targetPoint" />
          </mxGeometry>
        </mxCell>
        <mxCell id="wiPwyt0miK05mvKJtJq--32" value="rico:hasIdentifierType" style="edgeLabel;resizable=0;html=1;;align=center;verticalAlign=middle;" parent="wiPwyt0miK05mvKJtJq--31" connectable="0" vertex="1">
          <mxGeometry relative="1" as="geometry" />
        </mxCell>
        <mxCell id="wiPwyt0miK05mvKJtJq--33" value="Current Reference Code" style="swimlane;fontStyle=0;childLayout=stackLayout;horizontal=1;startSize=26;fillColor=none;horizontalStack=0;resizeParent=1;resizeParentMax=0;resizeLast=0;collapsible=1;marginBottom=0;whiteSpace=wrap;html=1;strokeColor=#FF0000;" parent="1" vertex="1">
          <mxGeometry x="18.25" y="-110" width="129" height="52" as="geometry">
            <mxRectangle x="981" y="570" width="50" height="40" as="alternateBounds" />
          </mxGeometry>
        </mxCell>
        <mxCell id="wiPwyt0miK05mvKJtJq--34" value="rico:IdentifierType&lt;div&gt;&lt;br&gt;&lt;/div&gt;" style="text;strokeColor=none;fillColor=none;align=center;verticalAlign=top;spacingLeft=4;spacingRight=4;overflow=hidden;rotatable=0;points=[[0,0.5],[1,0.5]];portConstraint=eastwest;whiteSpace=wrap;html=1;" parent="wiPwyt0miK05mvKJtJq--33" vertex="1">
          <mxGeometry y="26" width="129" height="26" as="geometry" />
        </mxCell>
        <mxCell id="wiPwyt0miK05mvKJtJq--53" value="" style="endArrow=classic;html=1;rounded=0;entryX=0;entryY=-0.013;entryDx=0;entryDy=0;entryPerimeter=0;exitX=1;exitY=0;exitDx=0;exitDy=0;" parent="1" source="O5MTQEgZ2gDOvgu6FBi2-1" target="wiPwyt0miK05mvKJtJq--56" edge="1">
          <mxGeometry relative="1" as="geometry">
            <mxPoint x="690.9000000000001" y="375.98" as="sourcePoint" />
            <mxPoint x="800" y="240" as="targetPoint" />
          </mxGeometry>
        </mxCell>
        <mxCell id="wiPwyt0miK05mvKJtJq--54" value="rico:isOrWasDescribedBy" style="edgeLabel;resizable=0;html=1;;align=center;verticalAlign=middle;" parent="wiPwyt0miK05mvKJtJq--53" connectable="0" vertex="1">
          <mxGeometry relative="1" as="geometry" />
        </mxCell>
        <mxCell id="wiPwyt0miK05mvKJtJq--55" value="October 29th 1791, 4 o&#39;clock P.M. Richmond I or&amp;nbsp; Isle Madame near the Gut of Canso. Vessel coming out of Arishart Harbour, Green I.&amp;nbsp;Archival Description" style="swimlane;fontStyle=0;childLayout=stackLayout;horizontal=1;startSize=26;fillColor=none;horizontalStack=0;resizeParent=1;resizeParentMax=0;resizeLast=0;collapsible=1;marginBottom=0;whiteSpace=wrap;html=1;strokeColor=#FF0000;" parent="1" vertex="1">
          <mxGeometry x="810" y="190" width="450" height="52" as="geometry" />
        </mxCell>
        <mxCell id="wiPwyt0miK05mvKJtJq--56" value="rico:Record" style="text;strokeColor=none;fillColor=none;align=center;verticalAlign=top;spacingLeft=4;spacingRight=4;overflow=hidden;rotatable=0;points=[[0,0.5],[1,0.5]];portConstraint=eastwest;whiteSpace=wrap;html=1;" parent="wiPwyt0miK05mvKJtJq--55" vertex="1">
          <mxGeometry y="26" width="450" height="26" as="geometry" />
        </mxCell>
        <mxCell id="Pa1L8ZfUJXBHrEYyGiSI-1" value="October 29th 1791, 4 o&#39;clock P.M. Richmond I or&amp;nbsp; Isle Madame near the Gut of Canso. Vessel coming out of Arishart Harbour, Green I." style="swimlane;fontStyle=0;childLayout=stackLayout;horizontal=1;startSize=26;fillColor=none;horizontalStack=0;resizeParent=1;resizeParentMax=0;resizeLast=0;collapsible=1;marginBottom=0;whiteSpace=wrap;html=1;" parent="1" vertex="1">
          <mxGeometry x="410" y="100" width="440" height="52" as="geometry">
            <mxRectangle x="981" y="570" width="50" height="40" as="alternateBounds" />
          </mxGeometry>
        </mxCell>
        <mxCell id="Pa1L8ZfUJXBHrEYyGiSI-2" value="rico:Title&lt;div&gt;&lt;br&gt;&lt;/div&gt;" style="text;strokeColor=none;fillColor=none;align=center;verticalAlign=top;spacingLeft=4;spacingRight=4;overflow=hidden;rotatable=0;points=[[0,0.5],[1,0.5]];portConstraint=eastwest;whiteSpace=wrap;html=1;" parent="Pa1L8ZfUJXBHrEYyGiSI-1" vertex="1">
          <mxGeometry y="26" width="440" height="26" as="geometry" />
        </mxCell>
        <mxCell id="Pa1L8ZfUJXBHrEYyGiSI-3" value="" style="endArrow=classic;html=1;rounded=0;exitX=0.727;exitY=-0.038;exitDx=0;exitDy=0;exitPerimeter=0;entryX=0.513;entryY=1.026;entryDx=0;entryDy=0;entryPerimeter=0;" parent="1" source="O5MTQEgZ2gDOvgu6FBi2-1" target="Pa1L8ZfUJXBHrEYyGiSI-2" edge="1">
          <mxGeometry relative="1" as="geometry">
            <mxPoint x="635.0999999999999" y="370.2080000000001" as="sourcePoint" />
            <mxPoint x="380" y="230.00000000000023" as="targetPoint" />
          </mxGeometry>
        </mxCell>
        <mxCell id="Pa1L8ZfUJXBHrEYyGiSI-4" value="rico:hasOrHadTitle" style="edgeLabel;resizable=0;html=1;;align=center;verticalAlign=middle;" parent="Pa1L8ZfUJXBHrEYyGiSI-3" connectable="0" vertex="1">
          <mxGeometry relative="1" as="geometry">
            <mxPoint x="19" y="-53" as="offset" />
          </mxGeometry>
        </mxCell>
        <mxCell id="JUvVhaggt__ALHUesofw-1" value="Archival Description" style="swimlane;fontStyle=0;childLayout=stackLayout;horizontal=1;startSize=26;fillColor=none;horizontalStack=0;resizeParent=1;resizeParentMax=0;resizeLast=0;collapsible=1;marginBottom=0;whiteSpace=wrap;html=1;strokeColor=#FF0000;" parent="1" vertex="1">
          <mxGeometry x="880" y="-110" width="189" height="52" as="geometry">
            <mxRectangle x="981" y="570" width="50" height="40" as="alternateBounds" />
          </mxGeometry>
        </mxCell>
        <mxCell id="JUvVhaggt__ALHUesofw-2" value="rico:DocumentaryFormType&lt;div&gt;&lt;br&gt;&lt;/div&gt;" style="text;strokeColor=none;fillColor=none;align=center;verticalAlign=top;spacingLeft=4;spacingRight=4;overflow=hidden;rotatable=0;points=[[0,0.5],[1,0.5]];portConstraint=eastwest;whiteSpace=wrap;html=1;" parent="JUvVhaggt__ALHUesofw-1" vertex="1">
          <mxGeometry y="26" width="189" height="26" as="geometry" />
        </mxCell>
        <mxCell id="JUvVhaggt__ALHUesofw-3" value="" style="endArrow=classic;html=1;rounded=0;entryX=0.486;entryY=0.949;entryDx=0;entryDy=0;entryPerimeter=0;exitX=0.5;exitY=0;exitDx=0;exitDy=0;" parent="1" source="wiPwyt0miK05mvKJtJq--55" target="JUvVhaggt__ALHUesofw-2" edge="1">
          <mxGeometry relative="1" as="geometry">
            <mxPoint x="870" y="220" as="sourcePoint" />
            <mxPoint x="1050" y="-20" as="targetPoint" />
          </mxGeometry>
        </mxCell>
        <mxCell id="JUvVhaggt__ALHUesofw-4" value="rico:hasDocumentaryFormType" style="edgeLabel;resizable=0;html=1;;align=center;verticalAlign=middle;" parent="JUvVhaggt__ALHUesofw-3" connectable="0" vertex="1">
          <mxGeometry relative="1" as="geometry">
            <mxPoint x="-18" y="-93" as="offset" />
          </mxGeometry>
        </mxCell>
        <mxCell id="JUvVhaggt__ALHUesofw-7" value="" style="endArrow=classic;html=1;rounded=0;exitX=0.637;exitY=-0.019;exitDx=0;exitDy=0;exitPerimeter=0;entryX=0.372;entryY=1.038;entryDx=0;entryDy=0;entryPerimeter=0;" parent="1" source="wiPwyt0miK05mvKJtJq--55" target="JUvVhaggt__ALHUesofw-12" edge="1">
          <mxGeometry relative="1" as="geometry">
            <mxPoint x="1010" y="156" as="sourcePoint" />
            <mxPoint x="1050" y="-120" as="targetPoint" />
          </mxGeometry>
        </mxCell>
        <mxCell id="JUvVhaggt__ALHUesofw-8" value="rico:hasRecordState" style="edgeLabel;resizable=0;html=1;;align=center;verticalAlign=middle;" parent="JUvVhaggt__ALHUesofw-7" connectable="0" vertex="1">
          <mxGeometry relative="1" as="geometry">
            <mxPoint x="44" y="-86" as="offset" />
          </mxGeometry>
        </mxCell>
        <mxCell id="JUvVhaggt__ALHUesofw-11" value="Web Enabled: Y" style="swimlane;fontStyle=0;childLayout=stackLayout;horizontal=1;startSize=26;fillColor=none;horizontalStack=0;resizeParent=1;resizeParentMax=0;resizeLast=0;collapsible=1;marginBottom=0;whiteSpace=wrap;html=1;" parent="1" vertex="1">
          <mxGeometry x="1160" y="-110" width="150" height="52" as="geometry">
            <mxRectangle x="981" y="570" width="50" height="40" as="alternateBounds" />
          </mxGeometry>
        </mxCell>
        <mxCell id="JUvVhaggt__ALHUesofw-12" value="rico:RecordState&lt;div&gt;&lt;br&gt;&lt;/div&gt;" style="text;strokeColor=none;fillColor=none;align=center;verticalAlign=top;spacingLeft=4;spacingRight=4;overflow=hidden;rotatable=0;points=[[0,0.5],[1,0.5]];portConstraint=eastwest;whiteSpace=wrap;html=1;" parent="JUvVhaggt__ALHUesofw-11" vertex="1">
          <mxGeometry y="26" width="150" height="26" as="geometry" />
        </mxCell>
        <mxCell id="lszSfj4lrEIONad0Ssyt-3" value="" style="endArrow=classic;html=1;rounded=0;exitX=0.214;exitY=0.962;exitDx=0;exitDy=0;exitPerimeter=0;entryX=0.809;entryY=0;entryDx=0;entryDy=0;entryPerimeter=0;" parent="1" source="O5MTQEgZ2gDOvgu6FBi2-2" target="ACwB7Extp0PWbiBKnaxu-5" edge="1">
          <mxGeometry relative="1" as="geometry">
            <mxPoint x="352.0500000000002" y="422.67599999999993" as="sourcePoint" />
            <mxPoint x="-22" y="763" as="targetPoint" />
          </mxGeometry>
        </mxCell>
        <mxCell id="lszSfj4lrEIONad0Ssyt-4" value="rico:hasContentOfType" style="edgeLabel;resizable=0;html=1;;align=center;verticalAlign=middle;" parent="lszSfj4lrEIONad0Ssyt-3" connectable="0" vertex="1">
          <mxGeometry relative="1" as="geometry">
            <mxPoint x="9" y="-13" as="offset" />
          </mxGeometry>
        </mxCell>
        <mxCell id="hDRFmwmGqqun0fTEbF33-1" value="" style="endArrow=classic;html=1;rounded=0;exitX=0;exitY=0;exitDx=0;exitDy=0;entryX=0.636;entryY=0.9;entryDx=0;entryDy=0;entryPerimeter=0;" parent="1" source="O5MTQEgZ2gDOvgu6FBi2-1" target="hDRFmwmGqqun0fTEbF33-3" edge="1">
          <mxGeometry relative="1" as="geometry">
            <mxPoint x="240" y="383" as="sourcePoint" />
            <mxPoint x="10" y="290" as="targetPoint" />
          </mxGeometry>
        </mxCell>
        <mxCell id="hDRFmwmGqqun0fTEbF33-2" value="rico:creationDate" style="edgeLabel;resizable=0;html=1;;align=center;verticalAlign=middle;" parent="hDRFmwmGqqun0fTEbF33-1" connectable="0" vertex="1">
          <mxGeometry relative="1" as="geometry" />
        </mxCell>
        <mxCell id="hDRFmwmGqqun0fTEbF33-3" value="Oct. 29, 1791" style="html=1;whiteSpace=wrap;rounded=1;arcSize=50;" parent="1" vertex="1">
          <mxGeometry y="140" width="110" height="20" as="geometry" />
        </mxCell>
        <mxCell id="ACwB7Extp0PWbiBKnaxu-5" value="Graphic materials" style="swimlane;fontStyle=0;childLayout=stackLayout;horizontal=1;startSize=26;fillColor=none;horizontalStack=0;resizeParent=1;resizeParentMax=0;resizeLast=0;collapsible=1;marginBottom=0;whiteSpace=wrap;html=1;" parent="1" vertex="1">
          <mxGeometry x="72" y="570" width="178" height="52" as="geometry">
            <mxRectangle x="981" y="570" width="50" height="40" as="alternateBounds" />
          </mxGeometry>
        </mxCell>
        <mxCell id="ACwB7Extp0PWbiBKnaxu-6" value="rico:ContentType&lt;div&gt;&lt;br&gt;&lt;/div&gt;" style="text;strokeColor=none;fillColor=none;align=center;verticalAlign=top;spacingLeft=4;spacingRight=4;overflow=hidden;rotatable=0;points=[[0,0.5],[1,0.5]];portConstraint=eastwest;whiteSpace=wrap;html=1;" parent="ACwB7Extp0PWbiBKnaxu-5" vertex="1">
          <mxGeometry y="26" width="178" height="26" as="geometry" />
        </mxCell>
        <mxCell id="ACwB7Extp0PWbiBKnaxu-11" value="" style="endArrow=classic;html=1;rounded=0;entryX=0.587;entryY=1.085;entryDx=0;entryDy=0;entryPerimeter=0;exitX=0.477;exitY=-0.058;exitDx=0;exitDy=0;exitPerimeter=0;" parent="1" source="O5MTQEgZ2gDOvgu6FBi2-1" target="ACwB7Extp0PWbiBKnaxu-14" edge="1">
          <mxGeometry relative="1" as="geometry">
            <mxPoint x="460" y="350" as="sourcePoint" />
            <mxPoint x="330" y="-28" as="targetPoint" />
          </mxGeometry>
        </mxCell>
        <mxCell id="ACwB7Extp0PWbiBKnaxu-12" value="rico:isDirectlyIncludedIn" style="edgeLabel;resizable=0;html=1;;align=center;verticalAlign=middle;" parent="ACwB7Extp0PWbiBKnaxu-11" connectable="0" vertex="1">
          <mxGeometry relative="1" as="geometry">
            <mxPoint x="-9" y="-102" as="offset" />
          </mxGeometry>
        </mxCell>
        <mxCell id="ACwB7Extp0PWbiBKnaxu-13" value="Elizabeth Simcoe loose sketches" style="swimlane;fontStyle=0;childLayout=stackLayout;horizontal=1;startSize=26;fillColor=none;horizontalStack=0;resizeParent=1;resizeParentMax=0;resizeLast=0;collapsible=1;marginBottom=0;whiteSpace=wrap;html=1;strokeColor=#FF0000;" parent="1" vertex="1">
          <mxGeometry x="220" y="-100" width="160" height="52" as="geometry" />
        </mxCell>
        <mxCell id="ACwB7Extp0PWbiBKnaxu-14" value="rico:RecordSet" style="text;strokeColor=none;fillColor=none;align=center;verticalAlign=top;spacingLeft=4;spacingRight=4;overflow=hidden;rotatable=0;points=[[0,0.5],[1,0.5]];portConstraint=eastwest;whiteSpace=wrap;html=1;" parent="ACwB7Extp0PWbiBKnaxu-13" vertex="1">
          <mxGeometry y="26" width="160" height="26" as="geometry" />
        </mxCell>
        <mxCell id="ACwB7Extp0PWbiBKnaxu-15" value="" style="endArrow=classic;html=1;rounded=0;exitX=0.25;exitY=0;exitDx=0;exitDy=0;entryX=0.591;entryY=1.103;entryDx=0;entryDy=0;entryPerimeter=0;" parent="1" source="ACwB7Extp0PWbiBKnaxu-13" target="ACwB7Extp0PWbiBKnaxu-18" edge="1">
          <mxGeometry relative="1" as="geometry">
            <mxPoint x="270" y="-123" as="sourcePoint" />
            <mxPoint x="200" y="-220" as="targetPoint" />
          </mxGeometry>
        </mxCell>
        <mxCell id="ACwB7Extp0PWbiBKnaxu-16" value="rico:hasOrHadIdentifier" style="edgeLabel;resizable=0;html=1;;align=center;verticalAlign=middle;" parent="ACwB7Extp0PWbiBKnaxu-15" connectable="0" vertex="1">
          <mxGeometry relative="1" as="geometry">
            <mxPoint x="2" y="15" as="offset" />
          </mxGeometry>
        </mxCell>
        <mxCell id="ACwB7Extp0PWbiBKnaxu-17" value="F 47-11-1" style="swimlane;fontStyle=0;childLayout=stackLayout;horizontal=1;startSize=26;fillColor=none;horizontalStack=0;resizeParent=1;resizeParentMax=0;resizeLast=0;collapsible=1;marginBottom=0;whiteSpace=wrap;html=1;" parent="1" vertex="1">
          <mxGeometry x="130" y="-280" width="110" height="52" as="geometry">
            <mxRectangle x="981" y="570" width="50" height="40" as="alternateBounds" />
          </mxGeometry>
        </mxCell>
        <mxCell id="ACwB7Extp0PWbiBKnaxu-18" value="rico:Identifier&lt;div&gt;&lt;br&gt;&lt;/div&gt;" style="text;strokeColor=none;fillColor=none;align=center;verticalAlign=top;spacingLeft=4;spacingRight=4;overflow=hidden;rotatable=0;points=[[0,0.5],[1,0.5]];portConstraint=eastwest;whiteSpace=wrap;html=1;" parent="ACwB7Extp0PWbiBKnaxu-17" vertex="1">
          <mxGeometry y="26" width="110" height="26" as="geometry" />
        </mxCell>
        <mxCell id="ACwB7Extp0PWbiBKnaxu-19" value="" style="endArrow=classic;html=1;rounded=0;exitX=0.587;exitY=-0.017;exitDx=0;exitDy=0;exitPerimeter=0;entryX=0.409;entryY=0.966;entryDx=0;entryDy=0;entryPerimeter=0;" parent="1" source="ACwB7Extp0PWbiBKnaxu-13" target="ACwB7Extp0PWbiBKnaxu-22" edge="1">
          <mxGeometry relative="1" as="geometry">
            <mxPoint x="330" y="-125" as="sourcePoint" />
            <mxPoint x="390" y="-200" as="targetPoint" />
          </mxGeometry>
        </mxCell>
        <mxCell id="ACwB7Extp0PWbiBKnaxu-20" value="rico:hasRecordSetType" style="edgeLabel;resizable=0;html=1;;align=center;verticalAlign=middle;" parent="ACwB7Extp0PWbiBKnaxu-19" connectable="0" vertex="1">
          <mxGeometry relative="1" as="geometry" />
        </mxCell>
        <mxCell id="ACwB7Extp0PWbiBKnaxu-21" value="Sub-Series" style="swimlane;fontStyle=0;childLayout=stackLayout;horizontal=1;startSize=26;fillColor=none;horizontalStack=0;resizeParent=1;resizeParentMax=0;resizeLast=0;collapsible=1;marginBottom=0;whiteSpace=wrap;html=1;strokeColor=#FF0000;" parent="1" vertex="1">
          <mxGeometry x="360" y="-280" width="140" height="52" as="geometry">
            <mxRectangle x="981" y="570" width="50" height="40" as="alternateBounds" />
          </mxGeometry>
        </mxCell>
        <mxCell id="ACwB7Extp0PWbiBKnaxu-22" value="rico:RecordSetType&lt;div&gt;&lt;br&gt;&lt;/div&gt;" style="text;strokeColor=none;fillColor=none;align=center;verticalAlign=top;spacingLeft=4;spacingRight=4;overflow=hidden;rotatable=0;points=[[0,0.5],[1,0.5]];portConstraint=eastwest;whiteSpace=wrap;html=1;" parent="ACwB7Extp0PWbiBKnaxu-21" vertex="1">
          <mxGeometry y="26" width="140" height="26" as="geometry" />
        </mxCell>
        <mxCell id="O5MTQEgZ2gDOvgu6FBi2-1" value="October 29th 1791, 4 o&#39;clock P.M. Richmond I or&amp;nbsp; Isle Madame near the Gut of Canso. Vessel coming out of Arishart Harbour, Green I." style="swimlane;fontStyle=0;childLayout=stackLayout;horizontal=1;startSize=26;fillColor=none;horizontalStack=0;resizeParent=1;resizeParentMax=0;resizeLast=0;collapsible=1;marginBottom=0;whiteSpace=wrap;html=1;" parent="1" vertex="1">
          <mxGeometry x="240" y="368" width="450" height="52" as="geometry" />
        </mxCell>
        <mxCell id="O5MTQEgZ2gDOvgu6FBi2-2" value="rico:Record" style="text;strokeColor=none;fillColor=none;align=center;verticalAlign=top;spacingLeft=4;spacingRight=4;overflow=hidden;rotatable=0;points=[[0,0.5],[1,0.5]];portConstraint=eastwest;whiteSpace=wrap;html=1;" parent="O5MTQEgZ2gDOvgu6FBi2-1" vertex="1">
          <mxGeometry y="26" width="450" height="26" as="geometry" />
        </mxCell>
        <mxCell id="O5MTQEgZ2gDOvgu6FBi2-3" value="Notes:&amp;nbsp;Old Code: 1" style="html=1;whiteSpace=wrap;rounded=1;arcSize=50;" parent="1" vertex="1">
          <mxGeometry x="870" y="525" width="110" height="50" as="geometry" />
        </mxCell>
        <mxCell id="O5MTQEgZ2gDOvgu6FBi2-4" value="" style="endArrow=classic;html=1;rounded=0;entryX=0.082;entryY=0.14;entryDx=0;entryDy=0;entryPerimeter=0;exitX=1.007;exitY=0.962;exitDx=0;exitDy=0;exitPerimeter=0;" parent="1" source="O5MTQEgZ2gDOvgu6FBi2-2" target="O5MTQEgZ2gDOvgu6FBi2-3" edge="1">
          <mxGeometry relative="1" as="geometry">
            <mxPoint x="830" y="460" as="sourcePoint" />
            <mxPoint x="668" y="513" as="targetPoint" />
          </mxGeometry>
        </mxCell>
        <mxCell id="O5MTQEgZ2gDOvgu6FBi2-5" value="rico:generalDescription" style="edgeLabel;resizable=0;html=1;;align=center;verticalAlign=middle;" parent="O5MTQEgZ2gDOvgu6FBi2-4" connectable="0" vertex="1">
          <mxGeometry relative="1" as="geometry">
            <mxPoint x="7" as="offset" />
          </mxGeometry>
        </mxCell>
      </root>
    </mxGraphModel>
  </diagram>
</mxfile>
